<svg width="562" height="519" viewBox="0 0 562 519" fill="none" xmlns="http://www.w3.org/2000/svg">
<path d="M526.482 201.526C527.913 193.322 530.211 185.193 531.855 176.837C534.99 160.84 534.883 144.097 532.54 127.978C527.943 96.5156 514.703 66.6062 496.531 42.2221C476.487 15.3113 446.338 -6.43963 413.906 1.7493C380.18 10.2731 351.629 36.2859 318.831 48.1583C263.281 68.2501 207.046 31.6282 151.055 32.8459C102.734 33.8962 52.0082 51.2482 20.1696 94.1563C7.14193 111.706 -1.89828 135.345 1.176 158.481C4.93515 186.746 25.6637 208.253 41.1417 229.167C64.8532 261.223 73.8173 296.064 53.8801 333.538C40.3959 358.896 22.2546 381.302 23.8222 412.794C26.3334 463.176 72.8433 493.603 111.196 507.18C150.142 520.97 194.399 522.462 233.132 506.875C267.543 493.024 291.559 462.689 322.834 443.404C350.99 426.036 383.087 419.369 414.926 423.19C448.073 427.163 483.001 434.119 515.037 419.841C545.689 406.173 560.208 369.536 561.35 334.451C561.913 316.947 559.401 299.214 553.588 282.928C546.48 263.049 530.744 247.554 526.33 226.458C524.519 217.843 525.082 209.639 526.482 201.526Z" fill="#1B2F46"/>
</svg>
