<svg width="300" height="276" viewBox="0 0 300 276" fill="none" xmlns="http://www.w3.org/2000/svg">
<path d="M280.469 107.107C281.23 102.747 282.451 98.4269 283.325 93.9857C284.991 85.4834 284.934 76.5847 283.689 68.0177C281.246 51.2963 274.209 35.4 264.551 22.4403C253.898 8.13765 237.874 -3.42255 220.637 0.929719C202.712 5.45996 187.538 19.2853 170.107 25.5952C140.583 36.2737 110.695 16.8098 80.9366 17.457C55.2549 18.0152 28.2952 27.2375 11.3735 50.0424C4.44958 59.3698 -0.35513 71.9331 1.27879 84.2295C3.27671 99.2521 14.2936 110.683 22.5198 121.798C35.122 138.835 39.8863 157.352 29.2901 177.269C22.1234 190.747 12.4817 202.655 13.3148 219.392C14.6495 246.169 39.3686 262.341 59.7522 269.557C80.4513 276.886 103.973 277.679 124.559 269.395C142.848 262.033 155.612 245.91 172.234 235.661C187.198 226.43 204.257 222.887 221.179 224.918C238.796 227.029 257.36 230.726 274.387 223.138C290.677 215.873 298.394 196.401 299.001 177.755C299.3 168.451 297.965 159.027 294.875 150.371C291.098 139.806 282.734 131.57 280.388 120.358C279.426 115.779 279.725 111.419 280.469 107.107Z" fill="#1B2F46"/>
</svg>
